<?xml version="1.0" encoding="utf-8"?>
<!-- Generator: Adobe Illustrator 27.3.1, SVG Export Plug-In . SVG Version: 6.00 Build 0)  -->
<svg version="1.1" id="Layer_1" xmlns="http://www.w3.org/2000/svg" xmlns:xlink="http://www.w3.org/1999/xlink" x="0px" y="0px"
	 viewBox="0 0 1280 288.71" style="enable-background:new 0 0 1280 288.71;" xml:space="preserve">
<style type="text/css">
	.st0{fill:#828282;}
	.st1{fill:#77BC65;}
</style>
<g>
	<path class="st0" d="M38.94,50.54H84.5c7.66,0.09,14.89,0.88,21.7,2.37c6.8,1.49,13.09,3.58,18.86,6.29
		c8.02,3.7,15.12,8.54,21.29,14.53c6.17,5.99,11.11,12.91,14.8,20.75c3.33,6.67,5.88,13.97,7.64,21.9
		c1.76,7.93,2.68,16.41,2.77,25.42v14.47c0,8.65-0.83,16.86-2.5,24.61c-1.67,7.75-4.08,14.87-7.23,21.36
		c-3.24,6.76-7.35,12.89-12.3,18.39c-4.96,5.5-10.5,10.19-16.63,14.06c-6.49,4.06-13.81,7.16-21.97,9.33
		c-8.16,2.16-16.97,3.29-26.43,3.38H38.94V50.54z M64.36,226.98H84.5c7.21-0.09,13.77-0.99,19.67-2.7c5.9-1.71,11.15-4.14,15.75-7.3
		c4.87-3.24,9.08-7.23,12.64-11.96c3.56-4.73,6.38-10.03,8.45-15.89c1.8-4.78,3.15-9.94,4.06-15.48c0.9-5.54,1.4-11.33,1.49-17.37
		v-14.74c-0.09-6.13-0.61-12.01-1.56-17.64c-0.95-5.63-2.37-10.88-4.26-15.75c-2.43-6.31-5.7-12.01-9.8-17.1
		c-4.1-5.09-9.13-9.21-15.07-12.37c-4.24-2.34-8.97-4.17-14.2-5.48c-5.23-1.31-10.95-2-17.17-2.1H64.36V226.98z"/>
	<path class="st0" d="M239.58,244.82c-8.61-3.52-15.98-8.43-22.11-14.74c-6.13-6.31-10.91-13.79-14.33-22.44
		c-3.43-8.65-5.14-18.07-5.14-28.26v-5.68c0-11.81,1.89-22.38,5.68-31.7c3.79-9.33,8.83-17.24,15.14-23.73
		c6.22-6.4,13.32-11.31,21.29-14.74c7.98-3.42,16.16-5.14,24.54-5.14c10.55,0,19.76,1.82,27.65,5.47
		c7.89,3.65,14.44,8.68,19.67,15.07c5.23,6.49,9.13,14.11,11.7,22.85c2.57,8.74,3.85,18.21,3.85,28.39v11.22H223.02v0.95
		c0.63,7.12,2.05,13.38,4.26,18.79c2.21,5.41,5.25,10.19,9.13,14.33c3.97,4.42,8.74,7.89,14.33,10.41
		c5.59,2.52,11.76,3.79,18.52,3.79c8.92,0,16.85-1.8,23.8-5.41c6.94-3.6,12.71-8.38,17.31-14.33l15.28,11.9
		c-4.87,7.39-12.15,13.95-21.83,19.67c-9.69,5.72-21.66,8.59-35.9,8.59C257.63,250.1,248.19,248.34,239.58,244.82z M250.33,121.72
		c-4.51,1.85-8.56,4.53-12.17,8.04c-3.61,3.61-6.65,8-9.13,13.18c-2.48,5.18-4.21,11.15-5.21,17.91h78.69v-1.22
		c0-4.51-0.86-9.35-2.57-14.53c-1.71-5.18-4.1-9.67-7.17-13.45c-3.06-3.79-6.92-6.85-11.56-9.19c-4.64-2.34-10.16-3.52-16.56-3.52
		C259.61,118.95,254.84,119.88,250.33,121.72z"/>
	<path class="st0" d="M338.68,101.11h25.69l41.91,110.32l2.3,9.06l2.43-9.06l40.97-110.32h25.55l-59.62,146.29h-19.06L338.68,101.11
		z"/>
	<path class="st0" d="M530.93,244.82c-8.61-3.52-15.98-8.43-22.11-14.74c-6.13-6.31-10.91-13.79-14.33-22.44
		c-3.43-8.65-5.14-18.07-5.14-28.26v-5.68c0-11.81,1.89-22.38,5.68-31.7c3.79-9.33,8.83-17.24,15.14-23.73
		c6.22-6.4,13.32-11.31,21.29-14.74c7.98-3.42,16.16-5.14,24.54-5.14c10.55,0,19.76,1.82,27.65,5.47
		c7.89,3.65,14.44,8.68,19.67,15.07c5.23,6.49,9.13,14.11,11.7,22.85c2.57,8.74,3.85,18.21,3.85,28.39v11.22H514.37v0.95
		c0.63,7.12,2.05,13.38,4.26,18.79c2.21,5.41,5.25,10.19,9.13,14.33c3.97,4.42,8.74,7.89,14.33,10.41
		c5.59,2.52,11.76,3.79,18.52,3.79c8.92,0,16.85-1.8,23.8-5.41c6.94-3.6,12.71-8.38,17.31-14.33l15.28,11.9
		c-4.87,7.39-12.15,13.95-21.83,19.67c-9.69,5.72-21.66,8.59-35.9,8.59C548.98,250.1,539.54,248.34,530.93,244.82z M541.68,121.72
		c-4.51,1.85-8.56,4.53-12.17,8.04c-3.61,3.61-6.65,8-9.13,13.18c-2.48,5.18-4.21,11.15-5.21,17.91h78.69v-1.22
		c0-4.51-0.86-9.35-2.57-14.53c-1.71-5.18-4.1-9.67-7.17-13.45c-3.06-3.79-6.92-6.85-11.56-9.19c-4.64-2.34-10.16-3.52-16.56-3.52
		C550.96,118.95,546.19,119.88,541.68,121.72z"/>
	<path class="st0" d="M724.36,50.87v174.89h47.73v21.63H649.59v-21.63h49.75V72.64h-49.75V50.87H724.36z"/>
	<path class="st1" d="M833.17,167.08v80.31h-24.88V50.54h57.73c9.19,0.18,17.84,1.49,25.96,3.92c8.11,2.43,15.23,6.08,21.36,10.95
		c6.04,4.87,10.79,10.97,14.26,18.32c3.47,7.35,5.21,15.98,5.21,25.89c0,6.4-0.93,12.26-2.78,17.58
		c-1.84,5.32-4.39,10.14-7.63,14.47c-3.25,4.33-7.12,8.16-11.63,11.49c-4.51,3.34-9.47,6.17-14.87,8.52l41.78,84.09l-0.13,1.62
		h-26.36l-38.67-80.31H833.17z M866.7,146.53c5.59-0.09,10.86-0.97,15.82-2.64c4.96-1.67,9.33-4.08,13.12-7.23
		c3.69-3.15,6.63-7.01,8.79-11.56c2.16-4.55,3.25-9.8,3.25-15.75c0-6.31-1.04-11.83-3.11-16.56s-4.95-8.72-8.65-11.97
		c-3.7-3.15-8.09-5.54-13.18-7.17c-5.09-1.62-10.66-2.48-16.7-2.57h-32.85v75.44H866.7z"/>
	<path class="st1" d="M1083,205.41c-2.88,9.69-7.03,17.83-12.44,24.4c-5.41,6.67-12.03,11.72-19.87,15.14
		c-7.84,3.42-16.81,5.14-26.9,5.14c-10.01,0-18.97-1.69-26.9-5.07c-7.93-3.38-14.65-8.45-20.15-15.21
		c-5.5-6.58-9.69-14.71-12.57-24.4c-2.89-9.69-4.33-20.8-4.33-33.33v-46.1c0-12.53,1.44-23.64,4.33-33.33
		c2.88-9.69,7.07-17.87,12.57-24.54c5.41-6.67,12.05-11.74,19.94-15.21c7.89-3.47,16.83-5.21,26.84-5.21
		c10.09,0,19.08,1.74,26.97,5.21c7.88,3.47,14.58,8.54,20.08,15.21c5.41,6.67,9.55,14.85,12.44,24.54
		c2.88,9.69,4.33,20.8,4.33,33.33v46.1C1087.32,184.61,1085.88,195.72,1083,205.41z M1061.64,108.27
		c-0.72-6.49-2.01-12.24-3.85-17.24c-1.85-5-4.35-9.17-7.5-12.51c-3.07-3.42-6.83-5.99-11.29-7.71c-4.46-1.71-9.62-2.57-15.48-2.57
		c-5.95,0-11.2,0.93-15.75,2.77c-4.55,1.85-8.4,4.53-11.56,8.04c-3.79,4.42-6.6,10.12-8.45,17.1c-1.85,6.99-2.77,15.07-2.77,24.27
		v32.99c0,2.25,0,4.51,0,6.76c0,2.25,0,4.55,0,6.9L1061.64,108.27z M1062.18,149.51c0-1.35,0-3.94,0-7.77c0-3.83,0-7.01,0-9.53
		l-76.52,58.54c0.81,6.58,2.25,12.37,4.33,17.37c2.07,5,4.78,9.13,8.11,12.37c3.06,3.06,6.76,5.39,11.09,6.96
		c4.33,1.58,9.19,2.37,14.6,2.37c5.68,0,10.73-0.85,15.14-2.57c4.42-1.71,8.16-4.19,11.22-7.44c4.15-4.42,7.19-10.18,9.13-17.31
		c1.94-7.12,2.91-15.5,2.91-25.15V149.51z"/>
	<path class="st1" d="M1216.43,50.54h29.47l-57.19,97.61l58.54,99.24h-29.2l-43.53-78.69l-43.67,78.69h-29.61l58.68-99.24
		l-57.19-97.61h29.34l41.91,77.2L1216.43,50.54z"/>
</g>
</svg>
